<?xml version="1.0" encoding="UTF-8" standalone="no"?>
<!-- Created with Inkscape (http://www.inkscape.org/) -->

<svg
   xmlns:dc="http://purl.org/dc/elements/1.1/"
   xmlns:cc="http://creativecommons.org/ns#"
   xmlns:rdf="http://www.w3.org/1999/02/22-rdf-syntax-ns#"
   xmlns:svg="http://www.w3.org/2000/svg"
   xmlns="http://www.w3.org/2000/svg"
   xmlns:sodipodi="http://sodipodi.sourceforge.net/DTD/sodipodi-0.dtd"
   xmlns:inkscape="http://www.inkscape.org/namespaces/inkscape"
   width="84.17305mm"
   height="74.660957mm"
   viewBox="0 0 84.17305 74.660957"
   version="1.1"
   id="svg1425"
   sodipodi:docname="logo al-isra vector plain.svg"
   inkscape:version="0.92.5 (2060ec1f9f, 2020-04-08)">
  <defs
     id="defs1419" />
  <sodipodi:namedview
     id="base"
     pagecolor="#ffffff"
     bordercolor="#666666"
     borderopacity="1.0"
     inkscape:pageopacity="0.0"
     inkscape:pageshadow="2"
     inkscape:zoom="1.1087891"
     inkscape:cx="178.0384"
     inkscape:cy="-20.99196"
     inkscape:document-units="mm"
     inkscape:current-layer="layer1"
     showgrid="false"
     inkscape:window-width="1920"
     inkscape:window-height="1015"
     inkscape:window-x="0"
     inkscape:window-y="40"
     inkscape:window-maximized="1"
     fit-margin-top="0"
     fit-margin-left="0"
     fit-margin-right="0"
     fit-margin-bottom="0" />
  <metadata
     id="metadata1422">
    <rdf:RDF>
      <cc:Work
         rdf:about="">
        <dc:format>image/svg+xml</dc:format>
        <dc:type
           rdf:resource="http://purl.org/dc/dcmitype/StillImage" />
        <dc:title></dc:title>
      </cc:Work>
    </rdf:RDF>
  </metadata>
  <g
     inkscape:label="Layer 1"
     inkscape:groupmode="layer"
     id="layer1"
     transform="translate(-106.27217,-25.938433)">
    <g
       id="g2034"
       transform="translate(-159.87787,14.794668)">
      <g
         id="g2040"
         transform="translate(85.188656,-36.2708)">
        <path
           inkscape:connector-curvature="0"
           id="path1450"
           d="m 183.50455,121.86692 c -0.0505,-0.1317 -0.068,-0.74703 -0.0387,-1.3674 l 0.0532,-1.12795 h 39.5993 39.5993 v 1.32292 1.32291 l -39.56059,0.0445 c -33.18716,0.0373 -39.57539,0.006 -39.65248,-0.19497 z m -0.4169,-28.615374 c -0.2427,-0.58556 -0.75627,-1.33278 -1.26718,-1.84369 -0.4725,-0.47249 -0.85909,-0.93558 -0.85909,-1.02907 0,-0.26748 2.02604,-2.03213 3.36304,-2.929156 2.69877,-1.81068 5.19891,-2.96341 12.07098,-5.56554 6.47888,-2.45324 8.37315,-3.26261 8.63769,-3.69065 0.0593,-0.0959 0.18009,-0.80825 0.26844,-1.58293 0.23025,-2.01883 0.45247,-2.35075 2.14272,-3.2006 1.67001,-0.839662 5.71376,-2.485162 9.94143,-4.045404 1.64924,-0.60866 3.08843,-1.1769 3.19821,-1.26274 0.10977,-0.0858 0.23396,-0.6313 0.27598,-1.21212 0.0638,-0.88199 0.16599,-1.1502 0.62008,-1.62734 0.46498,-0.48858 0.56026,-0.75008 0.65801,-1.80603 0.0629,-0.67909 0.17027,-1.83003 0.23866,-2.55764 0.13245,-1.40925 0.26384,-1.76388 0.65351,-1.76388 0.3891,0 0.52076,0.35372 0.65653,1.76388 0.34582,3.59177 0.40181,3.90538 0.73003,4.08906 0.46056,0.25774 0.98627,1.51754 0.99081,2.37436 0.003,0.52882 0.0892,0.76499 0.31256,0.85456 0.16977,0.0681 1.66746,0.62688 3.32819,1.24179 3.81245,1.411602 8.39454,3.269572 9.71991,3.941274 1.55974,0.79048 1.82992,1.16826 1.99567,2.79048 0.22402,2.19258 0.2158,2.18222 2.49361,3.14273 1.09873,0.46332 4.14081,1.65423 6.76019,2.64648 7.76836,2.94274 10.65434,4.37751 13.51849,6.720766 1.76134,1.441 1.82254,1.64093 0.81918,2.67604 -0.82901,0.85525 -1.23677,1.52779 -1.43989,2.37489 l -0.11631,0.48507 h -39.65168 -39.65168 z m 57.5642,-0.004 c 0.13496,-0.35168 -0.16835,-1.51279 -0.63987,-2.44956 C 238.45341,87.7016 233.762,85.13648 225.67589,82.95946 l -2.64046,-0.7109 -2.03113,0.53607 c -7.56905,1.99768 -12.24426,4.29266 -14.28482,7.012186 -0.831,1.1075 -1.53277,3.11691 -1.22012,3.49362 0.16615,0.20021 3.12323,0.24058 17.62169,0.24058 15.83949,0 17.43191,-0.0257 17.5308,-0.28347 z m 2.98564,-0.76608 c 4.6087,-1.34254 9.76569,-2.05052 16.10977,-2.21163 1.6337,-0.0415 3.0422,-0.0788 3.13,-0.0828 0.64311,-0.0298 -2.58307,-2.240316 -5.11086,-3.501936 -2.21828,-1.10714 -2.95854,-1.4124 -8.63072,-3.55911 -4.53952,-1.71804 -6.58113,-2.54804 -8.29028,-3.37036 l -0.88194,-0.42433 -0.36564,-1.49909 c -0.30981,-1.27017 -0.41755,-1.49309 -0.70556,-1.45985 -0.18695,0.0216 -1.57023,0.19563 -3.07394,0.38679 -4.71315,0.59916 -7.68759,0.77846 -12.87639,0.77617 -5.16291,-0.002 -7.38053,-0.14041 -12.6446,-0.78768 -1.66728,-0.205 -3.15556,-0.32509 -3.3073,-0.26687 -0.15173,0.0582 -0.27588,0.28175 -0.27588,0.49671 0,0.21496 -0.12637,0.84124 -0.28083,1.39173 -0.2418,0.86177 -0.37052,1.04444 -0.92604,1.31429 -1.30588,0.63433 -4.42452,1.91132 -7.1716,2.93656 -8.74979,3.26554 -11.85698,4.74961 -14.6495,6.996956 -0.41509,0.33406 -0.45989,0.43686 -0.24857,0.57035 0.14179,0.0896 0.50131,0.11834 0.79895,0.064 0.88472,-0.16167 7.90902,0.26636 10.57134,0.64417 3.30995,0.46971 4.88233,0.78703 7.45157,1.5038 1.18795,0.33142 2.26572,0.60258 2.39506,0.60258 0.13843,0 0.32161,-0.37459 0.44538,-0.91078 0.91762,-3.97536 5.31564,-6.727236 15.46077,-9.673966 l 1.23472,-0.35863 -0.0599,-1.63732 c -0.0706,-1.92902 0.0702,-2.14778 1.38286,-2.14778 1.30975,0 1.44641,0.21373 1.38939,2.17288 l -0.0485,1.66649 2.81324,0.83422 c 3.71247,1.10088 5.38425,1.74431 7.86883,3.02853 3.24804,1.67882 5.1758,3.663966 5.79551,5.968016 0.11742,0.43656 0.24478,0.9012 0.28303,1.03253 0.0382,0.13134 0.18967,0.19269 0.3365,0.13635 0.14683,-0.0564 1.08336,-0.34027 2.08118,-0.63094 z M 218.26763,81.59216 c -1.70149,-0.11575 -1.63383,-0.0457 -1.54179,-1.59617 0.0483,-0.81456 0.17919,-1.47342 0.32262,-1.62466 0.29889,-0.31516 1.76785,-0.33566 2.32832,-0.0325 0.37954,0.2053 0.40057,0.30962 0.35278,1.74992 -0.0563,1.69786 0.0338,1.60516 -1.46193,1.5034 z m 8.28706,-0.0298 c -0.0467,-0.0467 -0.085,-0.74365 -0.085,-1.54868 0,-1.30776 0.0396,-1.48489 0.37149,-1.66252 0.49637,-0.26565 1.74763,-0.27188 2.23486,-0.0111 0.34253,0.18332 0.39226,0.35268 0.39226,1.33583 0,0.61924 0.0469,1.24812 0.10423,1.39752 0.0715,0.18634 -0.0254,0.29892 -0.30868,0.35858 -0.62419,0.13145 -2.61242,0.22715 -2.70918,0.13039 z m -13.02312,-0.57601 c -1.35876,-0.20891 -1.34936,-0.19889 -1.34936,-1.4394 0,-1.45336 0.24734,-1.80455 1.25233,-1.7782 1.08526,0.0284 1.3935,0.47179 1.3935,2.00421 0,1.36261 -0.046,1.40565 -1.29647,1.21339 z m 17.90512,-1.29923 c 0.08,-1.58385 0.33466,-1.93529 1.40246,-1.93529 0.96563,0 1.21528,0.36853 1.21528,1.79395 0,1.03692 -0.0325,1.12954 -0.45245,1.2892 -0.24885,0.0946 -0.85284,0.17203 -1.3422,0.17203 h -0.88974 z m -22.82635,0.33213 -0.83785,-0.25764 V 78.6557 c 0,-1.29121 0.17204,-1.52925 1.1052,-1.52925 1.22768,0 1.36424,0.17719 1.36424,1.7701 0,1.60448 -0.02,1.61825 -1.63159,1.1227 z m 27.32557,0.16461 c -0.0647,-0.0647 -0.11759,-0.60264 -0.11759,-1.19548 0,-1.47521 0.28783,-1.86193 1.38583,-1.86193 0.46017,0 0.93192,0.0952 1.04834,0.21167 0.11932,0.11932 0.21166,0.69101 0.21166,1.3104 v 1.09873 l -0.95319,0.2771 c -1.04232,0.30301 -1.39575,0.33881 -1.57505,0.15951 z m 27.31088,6.55758 c -1.84666,-1.32528 -5.13908,-3.06471 -8.02569,-4.24006 -1.11566,-0.45427 -2.15379,-0.93665 -2.30695,-1.07197 -0.15316,-0.13531 -0.47066,-0.25014 -0.70555,-0.25518 -1.07439,-0.0231 -3.93774,-1.40195 -2.91123,-1.40195 0.15361,0 0.27928,-0.0794 0.27928,-0.17638 0,-0.10043 -0.52039,-0.17639 -1.2084,-0.17639 -1.30946,0 -2.37435,-0.27606 -2.27019,-0.58852 0.0359,-0.10761 0.77369,-0.2967 1.63961,-0.42022 0.86592,-0.12351 1.97127,-0.29383 2.45634,-0.37849 l 0.88195,-0.15393 -0.79375,-0.0151 c -0.43656,-0.008 -1.905,0.0876 -3.2632,0.21312 -2.47461,0.2287 -3.53491,0.1322 -3.38945,-0.3085 0.0364,-0.11024 0.77421,-0.3313 1.63961,-0.49124 3.05382,-0.56438 4.48387,-0.90782 4.48387,-1.07685 0,-0.10127 -0.26347,-0.12148 -0.64659,-0.0496 -0.89088,0.16713 -3.57215,0.59818 -5.21672,0.83867 -1.3456,0.19676 -1.78254,0.1282 -1.42996,-0.22439 0.0989,-0.0988 1.04607,-0.40704 2.10491,-0.68485 3.17717,-0.83359 4.10262,-1.14216 3.60086,-1.20061 -0.24253,-0.0283 -1.59191,0.22048 -2.99861,0.55274 -1.4067,0.33226 -2.62771,0.53733 -2.71335,0.45572 -0.38328,-0.36525 0.23751,-0.68366 3.3537,-1.72016 3.05815,-1.01719 4.13758,-1.441612 3.68118,-1.447382 -0.097,-0.001 -1.68452,0.433412 -3.52778,0.965862 -3.38438,0.97761 -3.96875,1.09783 -3.96875,0.81646 0,-0.28221 0.41806,-0.49467 3.08681,-1.568742 2.94512,-1.18531 4.81766,-2.03161 4.14514,-1.8734 -0.24254,0.0571 -2.00774,0.66042 -3.92267,1.3408 -1.91493,0.680392 -3.60165,1.191032 -3.74826,1.134772 -0.53567,-0.20555 -0.23571,-0.49652 1.18863,-1.152992 2.58036,-1.18927 6.32104,-3.060982 6.25316,-3.128872 -0.0363,-0.0363 -1.91696,0.728052 -4.17929,1.698502 -2.26234,0.97044 -4.18032,1.76444 -4.26218,1.76444 -0.0819,0 -0.14884,-0.11189 -0.14884,-0.24864 0,-0.13675 0.61516,-0.5844 1.36702,-0.99477 2.77255,-1.51329 5.6946,-3.209812 5.78756,-3.360222 0.14765,-0.23891 -0.21954,-0.0677 -4.25661,1.984282 -2.07083,1.05259 -3.88753,1.91379 -4.03711,1.91379 -0.42365,0 -0.3208,-0.31387 0.2131,-0.65033 2.78944,-1.757882 6.0661,-3.969792 5.99139,-4.044502 -0.12756,-0.12757 -0.66809,0.16484 -4.10226,2.21917 -2.80416,1.677452 -3.7717,2.126742 -3.26491,1.516082 0.11596,-0.13971 1.6338,-1.30184 3.37299,-2.582512 1.73919,-1.28066 3.16216,-2.40135 3.16216,-2.49041 0,-0.0891 -0.0992,-0.10459 -0.22048,-0.0345 -0.29848,0.1725 -3.90925,2.59549 -5.8539,3.928252 -1.57715,1.08088 -1.86312,1.22185 -1.86312,0.91841 0,-0.0891 1.67831,-1.577392 3.72958,-3.307302 4.68469,-3.95076 4.85451,-4.09953 4.68956,-4.10824 -0.12925,-0.007 -2.08162,1.4532 -5.15594,3.85574 -2.96649,2.31826 -3.98071,3.063092 -4.06127,2.982532 -0.0854,-0.0854 1.82138,-1.976352 5.75497,-5.707252 1.22258,-1.15958 2.27227,-2.20875 2.33265,-2.3315 0.1495,-0.30393 -1.4476,1.03891 -5.49201,4.61769 -1.87327,1.6576 -3.48062,3.040272 -3.57188,3.072612 -0.49732,0.17622 0.21242,-0.670432 3.97853,-4.746002 2.27945,-2.46676 4.14476,-4.5638 4.14514,-4.66008 3.7e-4,-0.0963 -1.9837,1.80811 -4.40905,4.23201 -2.42535,2.42389 -4.40972,4.31943 -4.40972,4.21231 0,-0.10712 0.84108,-1.21778 1.86907,-2.46812 3.76772,-4.58269 4.68006,-5.749 4.5774,-5.85166 -0.0577,-0.0577 -0.20895,0.009 -0.33616,0.14921 -0.12721,0.13975 -1.70019,1.92096 -3.49553,3.95826 -3.18643,3.61587 -3.8495,4.31617 -3.8495,4.06559 0,-0.0675 1.15093,-1.73425 2.55764,-3.70387 1.4067,-1.96962 2.55764,-3.63067 2.55764,-3.69122 0,-0.3988 -0.60487,0.27493 -2.91297,3.24457 -1.43403,1.84507 -2.64384,3.31816 -2.68846,3.27354 -0.0937,-0.0937 0.68929,-1.42296 2.61267,-4.4355 1.5613,-2.44542 1.99801,-3.24224 1.85523,-3.38502 -0.12981,-0.12981 0.11382,-0.46195 -2.53117,3.45063 -1.26596,1.87267 -2.50839,3.6586 -2.76097,3.96875 l -0.45922,0.56391 0.2461,-0.61736 c 0.13535,-0.33955 1.36197,-2.67947 2.72582,-5.19983 1.36385,-2.52036 2.4442,-4.61801 2.40077,-4.66143 -0.12542,-0.12543 -0.45576,0.3914 -2.52611,3.95224 -3.64447,6.26816 -4.06813,6.60189 -1.54399,1.21627 2.37228,-5.06162 3.47103,-7.53148 3.38759,-7.61492 -0.0428,-0.0428 -0.30438,0.38721 -0.58131,0.95556 -1.00011,2.05258 -5.39211,10.56368 -5.56443,10.78311 -0.38978,0.49636 -0.27476,0.006 0.40845,-1.74178 0.94232,-2.41041 2.04481,-5.25827 2.58799,-6.68505 0.24006,-0.63059 0.53857,-1.38465 0.66334,-1.67569 0.12477,-0.29105 0.27672,-0.7673 0.33766,-1.05834 l 0.1108,-0.52916 -0.27409,0.49139 c -0.15076,0.27026 -1.17432,2.58372 -2.27458,5.14101 -2.9166,6.77889 -3.0313,6.78046 -0.87915,0.012 1.41254,-4.44241 1.6244,-5.21093 1.3615,-4.93889 -0.17505,0.18113 -0.35273,0.65317 -2.52304,6.70278 -0.69608,1.94028 -1.34317,3.60715 -1.43797,3.70417 -0.21033,0.21523 -0.23822,0.34682 1.00413,-4.73776 0.88395,-3.61776 1.0241,-4.46404 0.68274,-4.12268 -0.0583,0.0583 -0.49483,1.48044 -0.97006,3.1603 -0.92469,3.26861 -1.38118,4.62461 -1.51259,4.49319 -0.0782,-0.0782 0.0815,-1.06026 0.80766,-4.96667 0.3167,-1.70351 0.32343,-2.1296 0.0308,-1.94875 -0.0761,0.047 -0.44089,1.49689 -0.81073,3.22197 -0.36985,1.72508 -0.70033,3.1709 -0.73441,3.21294 -0.0341,0.042 -0.13402,0.002 -0.2221,-0.0882 -0.094,-0.0966 -0.0986,-0.67459 -0.0112,-1.39935 0.0819,-0.6791 0.27402,-2.34598 0.4269,-3.70417 0.15289,-1.3582 0.31829,-2.64318 0.36758,-2.85551 0.0493,-0.21234 0.0123,-0.43386 -0.0823,-0.49228 -0.19901,-0.123 -0.24476,0.061 -0.63487,2.55404 -0.48357,3.09018 -0.51559,3.23316 -0.74083,3.30824 -0.24581,0.0819 -0.27572,-2.43189 -0.0705,-5.92694 0.0646,-1.10074 0.0669,-2.03258 0.005,-2.07077 -0.13106,-0.0809 -0.26927,0.83841 -0.43378,2.88536 -0.0645,0.80249 -0.19714,1.50844 -0.29475,1.56877 -0.0976,0.0603 -0.32357,-0.0803 -0.50213,-0.31256 -0.27384,-0.35616 -0.32527,-0.75879 -0.32857,-2.57259 -0.002,-1.23885 -0.0787,-2.19657 -0.18032,-2.25937 -0.11242,-0.0695 -0.17736,0.45448 -0.17909,1.4448 -0.003,1.68012 -0.0666,1.88633 -0.63689,2.06415 -0.41319,0.12882 -0.58584,-0.22374 -0.59542,-1.2159 -0.003,-0.29104 -0.082,-0.64823 -0.1761,-0.79375 -0.11669,-0.18057 -0.17184,0.29702 -0.17368,1.50416 -0.002,1.3397 -0.0718,1.86743 -0.2877,2.17563 -0.39378,0.5622 -0.54801,0.32324 -0.78146,-1.21079 -0.11069,-0.72736 -0.2833,-1.40184 -0.38358,-1.49886 -0.19317,-0.18688 -0.15077,0.61578 0.22194,4.20116 0.10909,1.04946 0.15472,2.02181 0.1014,2.16077 -0.19831,0.51678 -0.44147,0.22306 -0.6305,-0.76158 -0.40585,-2.1141 -0.77344,-3.58888 -0.9166,-3.67735 -0.0816,-0.0505 -0.14813,0.0915 -0.14776,0.31555 7.1e-4,0.37544 0.0984,1.0017 0.78003,4.9934 0.21336,1.24956 0.14222,1.95185 -0.16645,1.64318 -0.0534,-0.0535 -0.41245,-1.31817 -0.79777,-2.81047 -0.38531,-1.4923 -0.78888,-3.05061 -0.89682,-3.46292 -0.19177,-0.7325 -0.50716,-1.02547 -0.50716,-0.4711 0,0.15321 0.31226,1.64149 0.69391,3.3073 1.32511,5.78377 1.15176,5.70193 -0.8703,-0.41085 -0.77556,-2.3446 -1.4873,-4.39515 -1.58164,-4.5568 -0.30536,-0.52325 -0.21629,0.35158 0.16125,1.5837 1.42763,4.65916 2.62144,8.97032 2.48398,8.97032 -0.0705,0 -0.24825,-0.29766 -0.39506,-0.66146 -4.04214,-10.01664 -4.69223,-11.54771 -4.71767,-11.11096 -0.006,0.10707 1.62698,4.68594 3.80966,10.6807 0.58952,1.61912 0.0632,0.78622 -1.34503,-2.12863 -3.00497,-6.21975 -4.91206,-9.97722 -4.36375,-8.59771 0.3883,0.97694 3.84069,8.98421 4.43322,10.28215 0.50217,1.1 0.81324,1.94373 0.74266,2.01431 -0.10247,0.10247 -2.24485,-3.58724 -5.1125,-8.80502 -0.58772,-1.06938 -0.99428,-1.59183 -0.99428,-1.27771 0,0.0648 1.15882,2.37674 2.57515,5.13757 1.41634,2.76082 2.54321,5.05163 2.50416,5.09068 -0.0722,0.0722 -1.50671,-2.04943 -3.91011,-5.7833 -0.73374,-1.13991 -1.41883,-2.07257 -1.52243,-2.07257 -0.23784,0 -0.20099,0.0692 2.02106,3.79236 3.95571,6.628092 3.81957,6.595462 -1.28776,-0.30868 -1.09035,-1.47395 -1.61479,-2.00286 -1.61479,-1.62854 0,0.0502 1.07641,1.67737 2.39203,3.61597 1.31561,1.9386 2.32764,3.52016 2.24896,3.51457 -0.0787,-0.006 -0.55426,-0.50167 -1.05682,-1.10243 -3.10908,-3.71658 -5.91393,-7.0013 -5.97847,-7.0013 -0.26416,0 0.27223,0.75627 3.19277,4.5016 1.79735,2.30494 3.22094,4.23778 3.16354,4.29518 -0.0574,0.0574 -0.67682,-0.48948 -1.37648,-1.2153 -0.69966,-0.72582 -2.71553,-2.82423 -4.47971,-4.66312 -1.76418,-1.83889 -3.24369,-3.30733 -3.2878,-3.26319 -0.0441,0.0441 1.54644,1.90587 3.53455,4.13719 3.91817,4.39748 4.82416,5.47171 4.52259,5.36245 -0.10744,-0.0389 -2.00878,-1.73159 -4.22519,-3.76146 -5.67112,-5.19384 -5.38524,-4.94856 -4.41876,-3.79124 0.4523,0.54161 2.43141,2.55839 4.39801,4.48173 2.0906,2.04462 3.47983,3.529542 3.34495,3.575372 -0.12689,0.0431 -0.36501,-0.0379 -0.52917,-0.18003 -0.76934,-0.666082 -7.12929,-5.800052 -8.13568,-6.567402 -1.9805,-1.51009 -0.99342,-0.54702 3.24859,3.16958 2.26653,1.9858 4.1746,3.697332 4.24016,3.803412 0.29699,0.48054 -0.1477,0.27914 -1.43467,-0.649782 -3.84871,-2.77795 -6.30573,-4.46813 -6.383,-4.39085 -0.10886,0.10885 0.1129,0.29205 3.7915,3.13229 2.71593,2.096962 3.42525,2.783292 2.87654,2.783292 -0.0963,0 -1.57985,-0.8845 -3.29667,-1.965552 -2.95766,-1.86237 -4.2346,-2.52862 -3.58372,-1.86983 0.14552,0.14729 1.46992,1.06978 2.94311,2.04998 1.47319,0.980202 2.73129,1.867562 2.79579,1.971912 0.25564,0.41365 -0.16073,0.40382 -0.94473,-0.0223 -9.35898,-5.086742 -10.07741,-5.253552 -1.92785,-0.44761 0.99577,0.58723 1.71979,1.12893 1.71979,1.28672 0,0.41303 -0.4301,0.26061 -4.29743,-1.52294 -1.92702,-0.88872 -3.5406,-1.578922 -3.58572,-1.533802 -0.11251,0.11251 0.9818,0.720812 4.04669,2.249462 2.37324,1.18368 3.11109,1.744822 2.29306,1.743892 -0.16977,-1.8e-4 -1.34056,-0.404412 -2.60174,-0.898262 -3.25378,-1.27411 -4.69401,-1.78632 -4.78026,-1.70007 -0.0684,0.0684 1.08299,0.59758 5.21992,2.39883 0.93329,0.406362 1.51998,0.766452 1.55634,0.955212 0.091,0.47225 -0.44857,0.38605 -3.47246,-0.55481 -4.45928,-1.387482 -4.75742,-1.254232 -0.52744,0.23572 2.71918,0.9578 3.40898,1.27147 3.47205,1.57884 0.0779,0.37951 -0.061,0.36321 -2.87926,-0.33789 -1.35819,-0.33789 -2.56866,-0.61536 -2.68993,-0.61661 -0.46075,-0.005 -0.19521,0.32772 0.35278,0.44172 1.29863,0.27013 4.82378,1.38028 5.04795,1.58972 0.36214,0.33832 0.0654,0.66104 -0.48108,0.52317 -0.25621,-0.0646 -1.33895,-0.26513 -2.40611,-0.44553 -1.06715,-0.18039 -2.36783,-0.41174 -2.89039,-0.51412 -0.52257,-0.10237 -1.15757,-0.17892 -1.41111,-0.1701 -0.5396,0.0188 0.15586,0.20981 3.77234,1.03633 3.10264,0.70908 3.0868,0.70452 3.0868,0.88792 0,0.34922 -0.85367,0.34904 -4.06453,-8.8e-4 -1.8621,-0.20291 -3.42158,-0.33297 -3.46552,-0.28903 -0.0932,0.0932 0.26497,0.16661 2.76755,0.56709 1.01865,0.16301 2.05052,0.37227 2.29306,0.46502 l 0.44097,0.16863 -0.61736,0.33091 c -0.46891,0.25135 -1.0415,0.33907 -2.38125,0.3648 -1.27371,0.0245 -1.54331,0.0633 -0.97014,0.13969 0.43656,0.0582 0.78492,0.18517 0.77412,0.28219 -0.0313,0.28081 -1.27025,0.80686 -2.29205,0.97317 -0.51577,0.0839 -1.15913,0.31104 -1.4297,0.50466 -0.27058,0.19361 -1.44445,0.72138 -2.60862,1.1728 -3.18608,1.23545 -6.12157,2.71456 -8.35426,4.20948 -1.10235,0.73814 -2.081,1.34202 -2.1748,1.34202 -0.1711,0 -0.13448,-0.63868 0.23262,-4.05694 0.18416,-1.71485 0.23523,-1.99199 0.84515,-4.58611 3.37977,-14.374924 14.98844,-26.289155 29.55962,-30.337685 4.03747,-1.12179 5.66408,-1.31419 11.1125,-1.31445 5.36452,-2.5e-4 6.46131,0.11838 10.48284,1.13383 8.56958,2.16386 16.46461,7.226991 22.14592,14.202331 4.05171,4.97457 7.26043,11.689704 8.47061,17.727084 0.50054,2.49715 0.84487,5.45399 0.76482,6.56777 l -0.06,0.83513 z m -67.50968,-7.80075 c -0.26506,-0.0402 -0.74131,-0.0411 -1.05834,-0.002 -0.31703,0.0392 -0.10017,0.0722 0.48191,0.0732 0.58209,0.001 0.84148,-0.0311 0.57643,-0.0714 z m 55.37927,-2.97914 c -0.0586,-0.0586 -0.21075,-0.0649 -0.33808,-0.0139 -0.14071,0.0563 -0.0989,0.0981 0.10657,0.10657 0.18594,0.008 0.29012,-0.034 0.23151,-0.0926 z"
           style="fill:#a67f00;fill-opacity:0.98963731;stroke-width:0.17638889"
           sodipodi:nodetypes="cccccccsccccscccccscccccscccccsccscccccccccccsccscccccsccccscccsccccccccsccccsccccsccccccccccccsccsccccsscsscsscsccccssscssscscssccccsssccccccccscccccsccccscccccccsscccssccccsccscccsccsccccscscsscscsssccccscccscccccccccscscssccccccccccccccccccccccccccsccccccccccsscccsccscccscscscsccscccssssscsccscccsscccssccscccscsscssscccccccccccccscscccccccccccscssccsccccccsccccccc" />
        <path
           inkscape:connector-curvature="0"
           id="path1442"
           d="m 183.81915,103.91688 c 0,-6.659187 -0.0206,-6.527367 1.11314,-7.132517 0.75918,-0.40523 3.16891,-0.41573 3.91436,-0.0171 1.1633,0.62215 1.13558,0.48882 1.18726,5.709847 l 0.047,4.75187 1.4842,0.0517 c 1.06832,0.0372 1.52474,-0.0122 1.6289,-0.17639 0.0796,-0.12545 0.14591,-2.29785 0.1474,-4.82755 0.003,-4.543457 0.007,-4.603857 0.39957,-4.960947 0.74462,-0.67821 1.24796,-0.83406 2.68993,-0.83289 1.44979,0.001 2.21945,0.24869 2.74688,0.88339 0.19921,0.23973 0.27014,1.30027 0.33993,5.082807 l 0.0882,4.77988 h 1.4993 1.49931 l 0.0882,-4.67431 c 0.0603,-3.197617 0.15592,-4.792417 0.30258,-5.048187 0.80058,-1.39618 4.94426,-1.39618 5.74484,0 0.14666,0.25577 0.24225,1.85057 0.30258,5.048187 l 0.0882,4.67431 h 1.49931 1.4993 l 0.0882,-4.77988 c 0.0698,-3.782537 0.14072,-4.843077 0.33993,-5.082807 0.52743,-0.6347 1.29709,-0.88222 2.74688,-0.88339 1.44197,-10e-4 1.94531,0.15468 2.68993,0.83289 0.39193,0.35699 0.39687,0.418 0.39687,4.902417 0,2.49752 0.0482,4.6665 0.10707,4.81995 0.0857,0.22336 0.39859,0.27901 1.56863,0.27901 1.17003,0 1.48291,-0.0556 1.56862,-0.27901 0.0589,-0.15345 0.10707,-2.32243 0.10707,-4.81995 0,-4.484417 0.005,-4.545427 0.39688,-4.902417 0.74461,-0.67821 1.24795,-0.83406 2.68993,-0.83289 1.44979,0.001 2.21944,0.24869 2.74687,0.88339 0.19921,0.23973 0.27014,1.30027 0.33993,5.082807 l 0.0882,4.77988 h 1.49931 1.4993 l 0.0882,-4.67431 c 0.0603,-3.197617 0.15593,-4.792417 0.30258,-5.048187 0.39033,-0.68071 1.41328,-1.03606 2.97709,-1.03419 1.26058,0.002 1.51334,0.0585 2.16076,0.48691 0.40325,0.26686 0.74856,0.50392 0.76734,0.52679 0.0188,0.0229 0.0783,2.22441 0.1323,4.892287 l 0.0981,4.8507 h 2.02847 2.02847 l 0.0882,-5.37986 0.0882,-5.379867 0.814,-0.15739 c 0.4477,-0.0866 1.02202,-0.10519 1.27627,-0.0414 l 0.46228,0.11602 0.0466,5.421237 0.0466,5.42124 h 0.97014 0.97014 l 0.0467,-5.37109 c 0.035,-4.027327 0.10123,-5.405697 0.26458,-5.509447 0.36628,-0.23265 2.00916,-0.16495 2.22205,0.0916 0.13081,0.15762 0.21076,1.9782 0.24208,5.512157 l 0.0468,5.27681 h 0.97014 0.97014 l 0.0467,-5.37109 c 0.035,-4.027327 0.10123,-5.405697 0.26458,-5.509447 0.30406,-0.19313 1.42897,-0.17754 1.96766,0.0273 l 0.44986,0.17103 0.0467,5.341117 0.0467,5.34112 h 0.97014 0.97014 l 0.0466,-5.41645 0.0466,-5.416437 0.58258,-0.10929 c 0.32041,-0.0601 0.85505,-0.0833 1.18808,-0.0516 l 0.60551,0.0577 0.0946,5.468047 c 0.052,3.00743 0.11157,5.4879 0.1323,5.51215 0.0207,0.0243 0.38638,0.0441 0.81257,0.0441 0.54387,0 0.80679,-0.0832 0.88194,-0.27901 0.0589,-0.15345 0.10707,-2.60559 0.10707,-5.44918 0,-5.747737 -0.0833,-5.384307 1.23472,-5.384307 1.33122,0 1.23472,-0.54598 1.23472,6.986227 v 6.7721 h -39.5109 -39.51111 z m -0.32309,-10.764967 c -0.21701,-0.52356 -0.73661,-1.27825 -1.17899,-1.71242 -0.43504,-0.42695 -0.79098,-0.86731 -0.79098,-0.97856 0,-0.34867 1.83611,-1.95748 3.37498,-2.95717 2.39788,-1.55774 5.43114,-2.98401 10.11877,-4.75797 0.6791,-0.25699 1.98879,-0.75006 2.91042,-1.09571 2.77541,-1.04087 6.44175,-2.56038 7.00647,-2.90381 0.58395,-0.35511 0.6912,-0.66433 0.91765,-2.645645 0.13511,-1.18215 0.20929,-1.36757 0.7166,-1.79109 0.71973,-0.60086 4.74894,-2.32596 10.0565,-4.3057 2.27983,-0.85038 4.24436,-1.6231 4.36563,-1.71715 0.12126,-0.0941 0.22048,-0.52102 0.22048,-0.94882 0,-0.94961 0.37759,-1.90768 0.85188,-2.16151 0.36944,-0.19772 0.38663,-0.29935 0.65916,-3.89665 0.18578,-2.45221 0.77915,-2.57889 0.9929,-0.21197 0.32527,3.60189 0.32987,3.62406 0.86924,4.19216 0.54961,0.57888 0.86016,1.41032 0.86016,2.30295 0,0.30406 0.0992,0.63159 0.22048,0.72784 0.12127,0.0963 1.96674,0.82928 4.10104,1.62893 4.85388,1.81858 7.37463,2.84894 9.14056,3.73622 1.53603,0.77176 1.88292,1.26049 1.88473,2.65536 0.002,1.253105 0.31045,2.058145 0.93589,2.439775 0.81267,0.49587 3.785,1.7215 8.27927,3.41392 6.74429,2.53971 9.17171,3.64883 11.74967,5.36859 1.58515,1.05745 3.37586,2.61097 3.37586,2.92871 0,0.12864 -0.20002,0.36495 -0.44448,0.52512 -0.62431,0.40907 -1.46318,1.61897 -1.67951,2.42236 l -0.18267,0.67837 h -39.47185 -39.47186 z m 57.60777,0.41938 c 0.81835,-0.43811 5.76725,-1.65948 8.59657,-2.12161 3.92839,-0.64164 6.84871,-0.88862 10.54884,-0.89211 1.57119,-0.001 2.95471,-0.065 3.07448,-0.14103 0.34746,-0.22069 -0.12655,-0.74661 -1.57425,-1.74661 -2.74644,-1.89712 -5.1672,-3.02461 -12.22546,-5.69413 -4.60824,-1.7429 -6.67073,-2.58267 -8.27313,-3.36851 -0.75141,-0.3685 -0.89561,-0.52818 -1.09976,-1.21786 -0.12922,-0.43656 -0.23615,-1.042 -0.23763,-1.34541 -0.005,-0.945305 -0.22,-0.989635 -2.93377,-0.603805 -4.80694,0.683445 -6.88095,0.802845 -13.82585,0.795935 -6.83295,-0.007 -8.70811,-0.12128 -14.08937,-0.860215 -1.00668,-0.13823 -1.93934,-0.20951 -2.07257,-0.15838 -0.13322,0.0511 -0.24223,0.297535 -0.24223,0.547585 0,0.25004 -0.12706,0.90747 -0.28236,1.46096 l -0.28236,1.00634 -1.34924,0.6236 c -1.84263,0.85166 -4.0302,1.73632 -6.88518,2.78439 -6.31174,2.31705 -10.11699,4.03785 -12.6321,5.71246 -1.57937,1.05157 -2.29937,1.73538 -2.12475,2.01793 0.0758,0.12264 1.15535,0.19009 3.0612,0.19127 6.03457,0.004 11.97003,0.82327 17.30443,2.38931 0.83307,0.24457 1.63373,0.51632 1.77925,0.6039 0.35835,0.21565 35.36306,0.23131 35.76524,0.016 z"
           style="fill:#194c18;stroke-width:0.17638889"
           sodipodi:nodetypes="scccccccccccccccccccccscccscscscccccccccccccccccccccccccccccccccccccccccccccccscssscccsccsccccccccscsccscscccscscccccccccccccccccccscccsccccccc" />
        <text
           xml:space="preserve"
           style="font-style:normal;font-weight:normal;font-size:8.01276493px;line-height:1.25;font-family:sans-serif;letter-spacing:0px;word-spacing:0px;fill:#194c18;fill-opacity:1;stroke:none;stroke-width:0.20031911"
           x="166.45352"
           y="129.42813"
           id="text1466"
           transform="scale(1.1018261,0.90758422)"><tspan
             sodipodi:role="line"
             id="tspan1464"
             x="166.45352"
             y="129.42813"
             style="font-style:normal;font-variant:normal;font-weight:bold;font-stretch:normal;font-family:'Swiss921 BT';-inkscape-font-specification:'Swiss921 BT Bold';fill:#194c18;fill-opacity:1;stroke-width:0.20031911">MASJID RAYA AL-ISRA</tspan></text>
      </g>
    </g>
  </g>
</svg>
